Coordinates
version=1
nRows=29
nColumns=24
inDegrees=yes

Units are S.I. units (second, meters, Newtons, ...)
Angles are in degrees.

endheader
time	pelvis_tilt	pelvis_list	pelvis_rotation	pelvis_tx	pelvis_ty	pelvis_tz	hip_flexion_r	hip_adduction_r	hip_rotation_r	knee_angle_r	ankle_angle_r	subtalar_angle_r	mtp_angle_r	hip_flexion_l	hip_adduction_l	hip_rotation_l	knee_angle_l	ankle_angle_l	subtalar_angle_l	mtp_angle_l	lumbar_extension	lumbar_bending	lumbar_rotation
      3.97500000	     -8.59080981	      3.00285722	    -12.41545602	     -2.33783078	     -0.02316376	      0.46222699	     -6.22258592	     -3.31085080	      6.07061814	    -14.71096858	      1.20968399	      3.39341801	      7.29390086	     28.13386109	     -2.72284227	     -3.88237529	     -5.46642842	     -6.38773752	      2.74750714	     12.94736010	      7.54265392	     -0.69333876	      9.74668873
      3.98000000	     -8.66902299	      3.11132193	    -12.54520681	     -2.33081061	     -0.02365366	      0.46148693	     -6.16523013	     -3.60235144	      6.07305319	    -15.34612139	      0.73677990	      3.75150498	      8.04384490	     28.18063569	     -2.53564783	     -4.02052468	     -6.19289346	     -6.50471059	      2.64003394	     12.74070331	      7.80005908	     -0.74901328	      9.98119605
      3.98500000	     -8.70240640	      3.18532778	    -12.58516786	     -2.32377187	     -0.02412208	      0.46070002	     -6.17076500	     -3.84217694	      6.07090024	    -15.99580338	      0.16298542	      3.93273497	      8.64756410	     28.17098812	     -2.33674288	     -4.10420872	     -6.89508792	     -6.70550893	      2.56922027	     12.62806596	      7.99748016	     -0.81166002	     10.08610510
      3.99000000	     -8.73192657	      3.27708773	    -12.62867181	     -2.31669585	     -0.02453708	      0.45991980	     -6.14755951	     -4.09818770	      6.08491894	    -16.70090919	     -0.45176087	      4.14881812	      9.08400898	     28.12016153	     -2.12771092	     -4.26871317	     -7.50430521	     -7.08643733	      2.53073955	     12.58334851	      8.19833452	     -0.89548196	     10.23727131
      3.99500000	     -8.77257042	      3.40376707	    -12.66997790	     -2.30962516	     -0.02493905	      0.45911871	     -6.05624211	     -4.38906038	      6.07263738	    -17.47827132	     -1.09569021	      4.38804124	      9.59357501	     28.06164908	     -1.89317719	     -4.48813469	     -8.03402799	     -7.62510058	      2.50521821	     12.55810337	      8.41515931	     -1.01680606	     10.38396518
      4.00000000	     -8.81600032	      3.56069950	    -12.69629088	     -2.30256762	     -0.02528964	      0.45827597	     -5.91354554	     -4.70926090	      6.03885150	    -18.31412078	     -1.80834616	      4.61884555	     10.13832101	     27.98788007	     -1.63133024	     -4.74628317	     -8.47424926	     -8.32815337	      2.49967383	     12.54071653	      8.63700976	     -1.16971834	     10.52580159
      4.00500000	     -8.85804809	      3.75123432	    -12.71312220	     -2.29553083	     -0.02556941	      0.45741432	     -5.71778787	     -5.06183853	      5.98250753	    -19.21305455	     -2.60173588	      4.83574536	     10.70715523	     27.90212011	     -1.34179877	     -5.03306290	     -8.84070169	     -9.16718365	      2.49631831	     12.51371035	      8.86130536	     -1.36080746	     10.66247404
      4.01000000	     -8.89634843	      3.92356157	    -12.74093591	     -2.28858025	     -0.02575793	      0.45649920	     -5.46525587	     -5.40634556	      5.87400510	    -20.14489937	     -3.58412979	      5.00786146	     11.75310700	     27.78229733	     -1.07283841	     -5.19382782	     -9.10967830	    -10.20728466	      2.25562714	     12.59352391	      9.06327532	     -1.52731452	     10.80157983
      4.01500000	     -8.92873133	      4.18283606	    -12.76785340	     -2.28161735	     -0.02586402	      0.45563318	     -5.15414201	     -5.82538823	      5.84954922	    -21.17914438	     -4.56136101	      5.19639107	     12.37947861	     27.69113707	     -0.73025363	     -5.50530853	     -9.41109097	    -11.18277321	      2.14354631	     12.42316159	      9.28465693	     -1.79237824	     10.92165022
      4.02000000	     -8.96581790	      4.45757668	    -12.77107743	     -2.27466202	     -0.02590128	      0.45473926	     -4.78273980	     -6.25507475	      5.76781490	    -22.26549586	     -5.69894591	      5.31229217	     13.15787384	     27.61034884	     -0.35964422	     -5.67815823	     -9.72206658	    -12.13673051	      1.88938562	     12.09579174	      9.51425576	     -2.07733107	     11.04603252
      4.02500000	     -8.99340534	      4.73450883	    -12.75976794	     -2.26775022	     -0.02586018	      0.45385200	     -4.37013822	     -6.67549401	      5.69364065	    -23.40186235	     -6.99655051	      5.32078868	     14.01301437	     27.53972894	      0.02564961	     -5.74748479	    -10.08974953	    -12.97414408	      1.52045058	     11.55915300	      9.72708988	     -2.37204835	     11.15937661
      4.03000000	     -9.01485356	      5.00551203	    -12.74407894	     -2.26086090	     -0.02575591	      0.45297963	     -3.91047347	     -7.07719786	      5.63788121	    -24.59270977	     -8.46166966	      5.23049115	     14.93267095	     27.48058092	      0.41611419	     -5.73108379	    -10.53050398	    -13.60886348	      1.05179285	     10.79792451	      9.93019533	     -2.66611803	     11.25426415
      4.03500000	     -9.03191365	      5.26890944	    -12.71492220	     -2.25402038	     -0.02560107	      0.45213739	     -3.40450692	     -7.44888766	      5.61793450	    -25.83939986	    -10.08327737	      5.01572486	     15.85981235	     27.44054309	      0.81106596	     -5.65060236	    -11.05471136	    -14.01658144	      0.53726848	      9.87289399	     10.11861683	     -2.96302706	     11.34216482
      4.04000000	     -9.04942011	      5.50521311	    -12.67762885	     -2.24721741	     -0.02543136	      0.45127679	     -2.84772732	     -7.77487696	      5.61521777	    -27.13858567	    -11.87567551	      4.66328446	     16.86420820	     27.41468561	      1.19563800	     -5.50414862	    -11.65821398	    -14.12858891	     -0.01517221	      8.83520365	     10.29165230	     -3.22639096	     11.40381991
      4.04500000	     -9.06310630	      5.72644158	    -12.61756943	     -2.24048432	     -0.02523777	      0.45046603	     -2.24810176	     -8.05491206	      5.64301059	    -28.49183834	    -13.81143891	      4.16667069	     17.87013437	     27.39898018	      1.57736409	     -5.32658813	    -12.32517572	    -13.99196794	     -0.49614166	      7.81064384	     10.44637884	     -3.49144588	     11.44268344
      4.05000000	     -9.07722185	      5.96263125	    -12.48803667	     -2.23377336	     -0.02506501	      0.44962570	     -1.61233145	     -8.33431902	      5.60766489	    -29.87954017	    -15.86015664	      3.55025847	     19.08591899	     27.40726703	      2.00153958	     -5.16417020	    -13.06005448	    -13.53664002	     -0.72477227	      6.81735022	     10.59452240	     -3.79273866	     11.39696930
      4.05500000	     -9.06977761	      6.15309698	    -12.45484943	     -2.22726292	     -0.02483654	      0.44896008	     -0.90053952	     -8.51432733	      5.77081621	    -31.42464866	    -17.93440908	      2.84155213	     19.59319367	     27.34449839	      2.35100979	     -4.95195392	    -13.71722914	    -13.13660099	     -1.16496293	      6.18944484	     10.68739658	     -4.03928280	     11.45381775
      4.06000000	     -9.11543127	      6.37345640	    -12.33179222	     -2.22079986	     -0.02470492	      0.44823961	     -0.09048306	     -8.69933489	      5.82450021	    -33.01477851	    -20.08942237	      1.96052042	     20.31365156	     27.35075301	      2.75227144	     -4.73692063	    -14.39813324	    -12.53688024	     -1.37157287	      5.60877712	     10.82825408	     -4.32732990	     11.40499502
      4.06500000	     -9.13490571	      6.62036470	    -12.19607796	     -2.21445264	     -0.02457959	      0.44756322	      0.76171418	     -8.89713834	      5.85777499	    -34.70186253	    -22.20615987	      1.00478840	     20.82817461	     27.31279266	      3.18376938	     -4.56916203	    -15.02924146	    -11.87037341	     -1.44686047	      5.22416451	     10.92754076	     -4.65830224	     11.34382141
      4.07000000	     -9.18708763	      6.91639347	    -12.01464951	     -2.20816222	     -0.02453793	      0.44692541	      1.70159055	     -9.11985450	      5.85927430	    -36.46061270	    -24.26595920	     -0.07575271	     21.27811915	     27.28624023	      3.66418755	     -4.39076336	    -15.60458829	    -11.10318863	     -1.32151848	      4.93336998	     11.06270049	     -5.05137135	     11.23556684
      4.07500000	     -9.17432659	      7.22539222	    -11.85952186	     -2.20203511	     -0.02446285	      0.44628265	      2.66424573	     -9.37106203	      5.79114571	    -38.34893636	    -26.21045165	     -1.24653551	     21.15271407	     27.15615305	      4.16881613	     -4.29289490	    -16.06480908	    -10.49547315	     -1.36912685	      4.84377676	     11.10514037	     -5.45925668	     11.14121416
      4.08000000	     -9.19778656	      7.57437078	    -11.66326063	     -2.19599102	     -0.02446559	      0.44566655	      3.71155270	     -9.64221752	      5.69300759	    -40.29755975	    -28.04214896	     -2.61664421	     20.82126323	     27.03471750	      4.71185736	     -4.18103160	    -16.44513304	     -9.88455107	     -1.29993607	      4.83932148	     11.17918501	     -5.91506755	     10.99065926
      4.08500000	     -9.23488422	      7.94414002	    -11.44099407	     -2.19000371	     -0.02450980	      0.44500673	      4.81520686	     -9.94195717	      5.52743742	    -42.29094124	    -29.73900059	     -4.15504192	     20.21112529	     26.89232916	      5.28258606	     -4.09420462	    -16.73829391	     -9.28714001	     -1.17213287	      4.88123575	     11.25963826	     -6.39009401	     10.82321900
      4.09000000	     -9.24914256	      8.33726602	    -11.22488877	     -2.18410742	     -0.02456562	      0.44435251	      5.93804571	    -10.27452975	      5.34096513	    -44.32464536	    -31.21056721	     -5.88549886	     19.27476551	     26.68633811	      5.88183856	     -4.01914062	    -16.93083771	     -8.75473340	     -1.08946453	      4.95481901	     11.30650332	     -6.88735577	     10.62869402
      4.09500000	     -9.24030704	      8.74632097	    -11.00596662	     -2.17825573	     -0.02462198	      0.44364403	      7.05667479	    -10.63544038	      5.14617947	    -46.36244946	    -32.43274283	     -7.80691676	     18.06164291	     26.41932440	      6.51167206	     -3.97714772	    -17.03166457	     -8.29186956	     -1.07032380	      5.04300601	     11.32089255	     -7.39775106	     10.38873376
      4.10000000	     -9.24217045	      9.12725605	    -10.77417279	     -2.17243886	     -0.02465741	      0.44289620	      8.18927253	    -10.97198725	      4.93038274	    -48.38253429	    -33.42898322	     -9.85065919	     16.49902880	     26.10841795	      7.12201909	     -3.83903193	    -17.04260937	     -7.85417077	     -1.02150293	      5.16151718	     11.33348690	     -7.87081587	     10.18747294
      4.10500000	     -9.20013241	      9.51484303	    -10.56549121	     -2.16663037	     -0.02464826	      0.44209780	      9.27256486	    -11.33193508	      4.74398982	    -50.34954287	    -34.10763315	    -12.00787143	     14.81660710	     25.71660517	      7.75083032	     -3.78407646	    -16.96950773	     -7.49007665	     -1.08681698	      5.24895225	     11.30092076	     -8.33962258	      9.90935763
      4.11000000	     -9.15273871	      9.84466509	    -10.35088448	     -2.16090352	     -0.02456155	      0.44125665	     10.34012108	    -11.63012974	      4.56445366	    -52.26939063	    -34.55126322	    -14.17796535	     12.80554698	     25.27250788	      8.33170132	     -3.59027331	    -16.83512175	     -7.15858820	     -1.12195315	      5.36100491	     11.23376545	     -8.74571424	      9.68805437
      4.11500000	     -9.07183032	     10.15727372	    -10.17367856	     -2.15512142	     -0.02439542	      0.44039434	     11.34460334	    -11.91420004	      4.43794922	    -54.08248981	    -34.70618617	    -16.35381248	     10.76581932	     24.74903080	      8.89785524	     -3.47208205	    -16.62004423	     -6.87429426	     -1.24974544	      5.42275895	     11.14575024	     -9.11645569	      9.39923480
